<svg xmlns="http://www.w3.org/2000/svg" viewBox="0 0 390 844"><defs><linearGradient id="g" x1="0" y1="0" x2="1" y2="1"><stop stop-color="#eeeaff"/><stop offset="1" stop-color="#fff5fb"/></linearGradient></defs><rect width="390" height="844" rx="44" fill="url(#g)"/><circle cx="195" cy="124" r="54" fill="#fff" opacity=".84"/><path d="M195 88c10 0 18 8 18 18 0 7-4 13-10 16v9h17c10 0 18 8 18 18s-8 18-18 18c-7 0-13-4-16-10h-8v17h-2v-17h-8c-3 6-9 10-16 10-10 0-18-8-18-18s8-18 18-18h17v-9c-6-3-10-9-10-16 0-10 8-18 18-18Z" fill="#7c6cff" opacity=".88"/><text x="195" y="226" text-anchor="middle" font-family="-apple-system,BlinkMacSystemFont,Arial" font-size="30" font-weight="700" fill="#1d1d1f">묵주기도</text><text x="195" y="264" text-anchor="middle" font-family="-apple-system,BlinkMacSystemFont,Arial" font-size="17" fill="#6e6e73">기도의 흐름을 따라</text><rect x="34" y="320" width="322" height="420" rx="34" fill="#fff" opacity=".76"/><circle cx="195" cy="414" r="42" fill="#7c6cff" opacity=".12"/><circle cx="195" cy="414" r="24" fill="#7c6cff" opacity=".22"/><rect x="78" y="500" width="234" height="18" rx="9" fill="#7c6cff" opacity=".16"/><rect x="103" y="538" width="184" height="14" rx="7" fill="#1d1d1f" opacity=".10"/><rect x="70" y="622" width="250" height="54" rx="27" fill="#7c6cff" opacity=".88"/></svg>